{
  "accessors": [
    {
      "bufferView": 2,
      "componentType": 5126,
      "count": 74,
      "max": [
        1.6500000953674316,
        1.3000000715255737,
        3.120391368865967
      ],
      "min": [
        -1.6500000953674316,
        -1.3000000715255737,
        1.0796087980270386
      ],
      "type": "VEC3"
    },
    {
      "bufferView": 2,
      "byteOffset": 888,
      "componentType": 5126,
      "count": 74,
      "max": [
        1.0,
        1.0,
        0.5449883937835693
      ],
      "min": [
        -1.0,
        -1.0,
        -0.5535313487052917
      ],
      "type": "VEC3"
    },
    {
      "bufferView": 3,
      "componentType": 5126,
      "count": 74,
      "max": [
        1.0,
        1.0,
        4.50291963716154e-08,
        -1.0
      ],
      "min": [
        -1.0,
        -1.0,
        -1.0,
        -1.0
      ],
      "type": "VEC4"
    },
    {
      "bufferView": 1,
      "componentType": 5126,
      "count": 74,
      "max": [
        0.875,
        1.0
      ],
      "min": [
        0.125,
        0.0
      ],
      "type": "VEC2"
    },
    {
      "bufferView": 0,
      "componentType": 5125,
      "count": 120,
      "type": "SCALAR"
    },
    {
      "bufferView": 2,
      "byteOffset": 1776,
      "componentType": 5126,
      "count": 160,
      "max": [
        0.5963293313980103,
        -0.9593771696090698,
        1.0959525108337402
      ],
      "min": [
        -0.6061994433403015,
        -1.0910650491714478,
        0.007784605026245117
      ],
      "type": "VEC3"
    },
    {
      "bufferView": 2,
      "byteOffset": 3696,
      "componentType": 5126,
      "count": 160,
      "max": [
        1.0,
        1.0,
        1.0
      ],
      "min": [
        -1.0,
        -1.0,
        -1.0
      ],
      "type": "VEC3"
    },
    {
      "bufferView": 1,
      "byteOffset": 592,
      "componentType": 5126,
      "count": 160,
      "max": [
        0.875,
        1.0
      ],
      "min": [
        0.125,
        0.0
      ],
      "type": "VEC2"
    },
    {
      "bufferView": 0,
      "byteOffset": 480,
      "componentType": 5125,
      "count": 336,
      "type": "SCALAR"
    },
    {
      "bufferView": 2,
      "byteOffset": 5616,
      "componentType": 5126,
      "count": 48,
      "max": [
        1.5292432308197021,
        1.200868844985962,
        1.1602027416229248
      ],
      "min": [
        -1.5292432308197021,
        -1.200868844985962,
        -0.011524496600031853
      ],
      "type": "VEC3"
    },
    {
      "bufferView": 2,
      "byteOffset": 6192,
      "componentType": 5126,
      "count": 48,
      "max": [
        1.0,
        1.0,
        1.0
      ],
      "min": [
        -1.0,
        -1.0,
        -1.0
      ],
      "type": "VEC3"
    },
    {
      "bufferView": 3,
      "byteOffset": 1184,
      "componentType": 5126,
      "count": 48,
      "max": [
        0.0,
        1.0,
        0.0,
        -1.0
      ],
      "min": [
        0.0,
        0.0,
        -1.0,
        -1.0
      ],
      "type": "VEC4"
    },
    {
      "bufferView": 1,
      "byteOffset": 1872,
      "componentType": 5126,
      "count": 48,
      "max": [
        0.8801898956298828,
        0.9938554763793945
      ],
      "min": [
        0.006144523620605469,
        0.006144523620605469
      ],
      "type": "VEC2"
    },
    {
      "bufferView": 0,
      "byteOffset": 1824,
      "componentType": 5125,
      "count": 72,
      "type": "SCALAR"
    },
    {
      "bufferView": 2,
      "byteOffset": 6768,
      "componentType": 5126,
      "count": 482,
      "max": [
        0.2972507178783417,
        0.06148099899291992,
        0.4420502781867981
      ],
      "min": [
        -0.2972507178783417,
        -0.575773298740387,
        -0.5275545120239258
      ],
      "type": "VEC3"
    },
    {
      "bufferView": 2,
      "byteOffset": 12552,
      "componentType": 5126,
      "count": 482,
      "max": [
        1.0,
        1.0,
        1.0
      ],
      "min": [
        -1.0,
        -1.0,
        -1.0
      ],
      "type": "VEC3"
    },
    {
      "bufferView": 1,
      "byteOffset": 2256,
      "componentType": 5126,
      "count": 482,
      "max": [
        0.9559741020202637,
        0.9875005483627319
      ],
      "min": [
        0.012499436736106873,
        0.01249944418668747
      ],
      "type": "VEC2"
    },
    {
      "bufferView": 0,
      "byteOffset": 2112,
      "componentType": 5125,
      "count": 1320,
      "type": "SCALAR"
    },
    {
      "bufferView": 2,
      "byteOffset": 18336,
      "componentType": 5126,
      "count": 572,
      "max": [
        3.369396209716797,
        1.9462536573410034,
        3.8149406909942627
      ],
      "min": [
        -1.8306045532226563,
        -4.653746604919434,
        -0.4671154022216797
      ],
      "type": "VEC3"
    },
    {
      "bufferView": 2,
      "byteOffset": 25200,
      "componentType": 5126,
      "count": 572,
      "max": [
        1.0,
        1.0,
        0.6332577466964722
      ],
      "min": [
        -1.0,
        -1.0,
        -0.5449883937835693
      ],
      "type": "VEC3"
    },
    {
      "bufferView": 3,
      "byteOffset": 1952,
      "componentType": 5126,
      "count": 572,
      "max": [
        1.0,
        0.05400725454092026,
        1.0,
        -1.0
      ],
      "min": [
        -1.0,
        -0.10020852088928223,
        -1.0,
        -1.0
      ],
      "type": "VEC4"
    },
    {
      "bufferView": 1,
      "byteOffset": 6112,
      "componentType": 5126,
      "count": 572,
      "max": [
        0.9926377534866333,
        0.8997907638549805
      ],
      "min": [
        0.0073621273040771484,
        0.0073621273040771484
      ],
      "type": "VEC2"
    },
    {
      "bufferView": 0,
      "byteOffset": 7392,
      "componentType": 5125,
      "count": 2550,
      "type": "SCALAR"
    },
    {
      "bufferView": 2,
      "byteOffset": 32064,
      "componentType": 5126,
      "count": 8350,
      "max": [
        1.0116755962371826,
        0.7199442386627197,
        2.6891355514526367
      ],
      "min": [
        -1.7222023010253906,
        -2.2527623176574707,
        -0.5863457918167114
      ],
      "type": "VEC3"
    },
    {
      "bufferView": 2,
      "byteOffset": 132264,
      "componentType": 5126,
      "count": 8350,
      "max": [
        1.0,
        1.0,
        1.0
      ],
      "min": [
        -1.0,
        -1.0,
        -1.0
      ],
      "type": "VEC3"
    },
    {
      "bufferView": 3,
      "byteOffset": 11104,
      "componentType": 5126,
      "count": 8350,
      "max": [
        1.0,
        1.0,
        0.9999927282333374,
        1.0
      ],
      "min": [
        -1.0,
        -1.0,
        -0.9999930262565613,
        1.0
      ],
      "type": "VEC4"
    },
    {
      "bufferView": 1,
      "byteOffset": 10688,
      "componentType": 5126,
      "count": 8350,
      "max": [
        0.9919908046722412,
        0.9918723106384277
      ],
      "min": [
        0.008009195327758789,
        0.008009195327758789
      ],
      "type": "VEC2"
    },
    {
      "bufferView": 0,
      "byteOffset": 17592,
      "componentType": 5125,
      "count": 19785,
      "type": "SCALAR"
    },
    {
      "bufferView": 2,
      "byteOffset": 232464,
      "componentType": 5126,
      "count": 488,
      "max": [
        2.4723775386810303,
        0.678577184677124,
        0.8227519989013672
      ],
      "min": [
        -0.37354588508605957,
        -1.7673461437225342,
        -2.7164499759674072
      ],
      "type": "VEC3"
    },
    {
      "bufferView": 2,
      "byteOffset": 238320,
      "componentType": 5126,
      "count": 488,
      "max": [
        1.0,
        1.0,
        1.0
      ],
      "min": [
        -1.0,
        -1.0,
        -1.0
      ],
      "type": "VEC3"
    },
    {
      "bufferView": 3,
      "byteOffset": 144704,
      "componentType": 5126,
      "count": 488,
      "max": [
        1.0,
        1.0,
        1.0,
        1.0
      ],
      "min": [
        -1.0,
        -1.0,
        -1.0,
        1.0
      ],
      "type": "VEC4"
    },
    {
      "bufferView": 1,
      "byteOffset": 77488,
      "componentType": 5126,
      "count": 488,
      "max": [
        0.992882251739502,
        0.9895362854003906
      ],
      "min": [
        0.007117748260498047,
        0.00711774080991745
      ],
      "type": "VEC2"
    },
    {
      "bufferView": 0,
      "byteOffset": 96732,
      "componentType": 5125,
      "count": 840,
      "type": "SCALAR"
    },
    {
      "bufferView": 2,
      "byteOffset": 244176,
      "componentType": 5126,
      "count": 1464,
      "max": [
        1.019821286201477,
        -0.1286209225654602,
        2.25180983543396
      ],
      "min": [
        -0.8358756303787231,
        -2.0777618885040283,
        0.007784605026245117
      ],
      "type": "VEC3"
    },
    {
      "bufferView": 2,
      "byteOffset": 261744,
      "componentType": 5126,
      "count": 1464,
      "max": [
        1.0,
        1.0,
        1.0
      ],
      "min": [
        -1.0,
        -1.0,
        -1.0
      ],
      "type": "VEC3"
    },
    {
      "bufferView": 1,
      "byteOffset": 81392,
      "componentType": 5126,
      "count": 1464,
      "max": [
        0.9845325946807861,
        0.982550323009491
      ],
      "min": [
        0.015467464923858643,
        0.015467405319213867
      ],
      "type": "VEC2"
    },
    {
      "bufferView": 0,
      "byteOffset": 100092,
      "componentType": 5125,
      "count": 3120,
      "type": "SCALAR"
    }
  ],
  "asset": {
    "extras": {
      "author": "UlissesVinicios (https://sketchfab.com/UlissesVinicios)",
      "license": "CC-BY-4.0 (http://creativecommons.org/licenses/by/4.0/)",
      "source": "https://sketchfab.com/3d-models/cottage-wip-8cc0016e0ab24c5cb9b13ad48fb202ff",
      "title": "Cottage (WIP)"
    },
    "generator": "Sketchfab-12.68.0",
    "version": "2.0"
  },
  "bufferViews": [
    {
      "buffer": 0,
      "byteLength": 112572,
      "name": "floatBufferViews",
      "target": 34963
    },
    {
      "buffer": 0,
      "byteLength": 93104,
      "byteOffset": 112572,
      "byteStride": 8,
      "name": "floatBufferViews",
      "target": 34962
    },
    {
      "buffer": 0,
      "byteLength": 279312,
      "byteOffset": 205676,
      "byteStride": 12,
      "name": "floatBufferViews",
      "target": 34962
    },
    {
      "buffer": 0,
      "byteLength": 152512,
      "byteOffset": 484988,
      "byteStride": 16,
      "name": "floatBufferViews",
      "target": 34962
    }
  ],
  "buffers": [
    {
      "byteLength": 637500,
      "uri": "scene.bin"
    }
  ],
  "images": [
    {
      "uri": "textures/roof_baseColor.png"
    },
    {
      "uri": "textures/roof_normal.png"
    },
    {
      "uri": "textures/floor_baseColor.png"
    },
    {
      "uri": "textures/floor_metallicRoughness.png"
    },
    {
      "uri": "textures/floor_normal.png"
    },
    {
      "uri": "textures/stairs_baseColor.png"
    },
    {
      "uri": "textures/stairs_metallicRoughness.png"
    },
    {
      "uri": "textures/snow_baseColor.png"
    },
    {
      "uri": "textures/snow_normal.png"
    },
    {
      "uri": "textures/material_baseColor.png"
    },
    {
      "uri": "textures/material_metallicRoughness.png"
    },
    {
      "uri": "textures/material_normal.png"
    },
    {
      "uri": "textures/bricks_baseColor.png"
    },
    {
      "uri": "textures/bricks_metallicRoughness.png"
    },
    {
      "uri": "textures/bricks_normal.png"
    },
    {
      "uri": "textures/window_baseColor.png"
    },
    {
      "uri": "textures/window_metallicRoughness.png"
    }
  ],
  "materials": [
    {
      "doubleSided": true,
      "name": "front_window__0",
      "pbrMetallicRoughness": {
        "metallicFactor": 0.0,
        "roughnessFactor": 0.6
      }
    },
    {
      "doubleSided": true,
      "name": "roof",
      "normalTexture": {
        "index": 1,
        "scale": 0.050351434008840575
      },
      "pbrMetallicRoughness": {
        "baseColorTexture": {
          "index": 0
        },
        "metallicFactor": 0.0,
        "roughnessFactor": 0.8211145618000169
      }
    },
    {
      "doubleSided": true,
      "name": "floor",
      "normalTexture": {
        "index": 4
      },
      "pbrMetallicRoughness": {
        "baseColorTexture": {
          "index": 2
        },
        "metallicRoughnessTexture": {
          "index": 3
        },
        "roughnessFactor": 0.8211145618000169
      }
    },
    {
      "doubleSided": true,
      "name": "stairs",
      "occlusionTexture": {
        "index": 6
      },
      "pbrMetallicRoughness": {
        "baseColorTexture": {
          "index": 5
        },
        "metallicRoughnessTexture": {
          "index": 6
        },
        "roughnessFactor": 0.8211145618000169
      }
    },
    {
      "doubleSided": true,
      "name": "snow",
      "normalTexture": {
        "index": 8
      },
      "pbrMetallicRoughness": {
        "baseColorTexture": {
          "index": 7
        },
        "metallicFactor": 0.0,
        "roughnessFactor": 0.8211145618000169
      }
    },
    {
      "doubleSided": true,
      "name": "material",
      "normalTexture": {
        "index": 11
      },
      "pbrMetallicRoughness": {
        "baseColorTexture": {
          "index": 9
        },
        "metallicRoughnessTexture": {
          "index": 10
        },
        "roughnessFactor": 0.8211145618000169
      }
    },
    {
      "doubleSided": true,
      "name": "bricks",
      "normalTexture": {
        "index": 14,
        "scale": 0.3117988800321033
      },
      "pbrMetallicRoughness": {
        "baseColorTexture": {
          "index": 12
        },
        "metallicRoughnessTexture": {
          "index": 13
        },
        "roughnessFactor": 0.8211145618000169
      }
    },
    {
      "doubleSided": true,
      "name": "window",
      "pbrMetallicRoughness": {
        "baseColorTexture": {
          "index": 15
        },
        "metallicRoughnessTexture": {
          "index": 16
        },
        "roughnessFactor": 0.8211145618000169
      }
    }
  ],
  "meshes": [
    {
      "name": "roof_roof_0",
      "primitives": [
        {
          "attributes": {
            "NORMAL": 1,
            "POSITION": 0,
            "TANGENT": 2,
            "TEXCOORD_0": 3
          },
          "indices": 4,
          "material": 1,
          "mode": 4
        }
      ]
    },
    {
      "name": "front_window__0",
      "primitives": [
        {
          "attributes": {
            "NORMAL": 6,
            "POSITION": 5,
            "TEXCOORD_0": 7
          },
          "indices": 8,
          "material": 0,
          "mode": 4
        }
      ]
    },
    {
      "name": "floor_floor_0",
      "primitives": [
        {
          "attributes": {
            "NORMAL": 10,
            "POSITION": 9,
            "TANGENT": 11,
            "TEXCOORD_0": 12
          },
          "indices": 13,
          "material": 2,
          "mode": 4
        }
      ]
    },
    {
      "name": "stair_stairs_0",
      "primitives": [
        {
          "attributes": {
            "NORMAL": 15,
            "POSITION": 14,
            "TEXCOORD_0": 16
          },
          "indices": 17,
          "material": 3,
          "mode": 4
        }
      ]
    },
    {
      "name": "snow_snow_0",
      "primitives": [
        {
          "attributes": {
            "NORMAL": 19,
            "POSITION": 18,
            "TANGENT": 20,
            "TEXCOORD_0": 21
          },
          "indices": 22,
          "material": 4,
          "mode": 4
        }
      ]
    },
    {
      "name": "logs_log_0",
      "primitives": [
        {
          "attributes": {
            "NORMAL": 24,
            "POSITION": 23,
            "TANGENT": 25,
            "TEXCOORD_0": 26
          },
          "indices": 27,
          "material": 5,
          "mode": 4
        }
      ]
    },
    {
      "name": "bricks_bricks_0",
      "primitives": [
        {
          "attributes": {
            "NORMAL": 29,
            "POSITION": 28,
            "TANGENT": 30,
            "TEXCOORD_0": 31
          },
          "indices": 32,
          "material": 6,
          "mode": 4
        }
      ]
    },
    {
      "name": "doors_windows_window_0",
      "primitives": [
        {
          "attributes": {
            "NORMAL": 34,
            "POSITION": 33,
            "TEXCOORD_0": 35
          },
          "indices": 36,
          "material": 7,
          "mode": 4
        }
      ]
    }
  ],
  "nodes": [
    {
      "children": [
        1
      ],
      "matrix": [
        1.0,
        0.0,
        0.0,
        0.0,
        0.0,
        2.220446049250313e-16,
        -1.0,
        0.0,
        0.0,
        1.0,
        2.220446049250313e-16,
        0.0,
        0.0,
        0.0,
        0.0,
        1.0
      ],
      "name": "Sketchfab_model"
    },
    {
      "children": [
        2
      ],
      "matrix": [
        0.009999999776482582,
        0.0,
        0.0,
        0.0,
        0.0,
        0.0,
        0.009999999776482582,
        0.0,
        0.0,
        -0.009999999776482582,
        0.0,
        0.0,
        0.0,
        0.0,
        0.0,
        1.0
      ],
      "name": "217d0006660e4cf2a1533fb1a3529675.fbx"
    },
    {
      "children": [
        3,
        5,
        7,
        9,
        11,
        13,
        15,
        17
      ],
      "name": "RootNode"
    },
    {
      "children": [
        4
      ],
      "matrix": [
        100.0,
        0.0,
        0.0,
        0.0,
        0.0,
        -1.629206793918314e-05,
        -99.99999999999868,
        0.0,
        0.0,
        99.99999999999868,
        -1.629206793918314e-05,
        0.0,
        0.0,
        0.0,
        0.0,
        1.0
      ],
      "name": "roof"
    },
    {
      "mesh": 0,
      "name": "roof_roof_0"
    },
    {
      "children": [
        6
      ],
      "matrix": [
        4.371139006309477e-06,
        -1.1102230246251565e-14,
        -99.99999999999991,
        0.0,
        -99.99999999999982,
        -4.371139006309477e-06,
        -4.371139011860592e-06,
        0.0,
        -4.371139011860592e-06,
        99.99999999999991,
        -1.9984014443252818e-13,
        0.0,
        0.0,
        0.0,
        0.0,
        1.0
      ],
      "name": "front_window"
    },
    {
      "mesh": 1,
      "name": "front_window__0"
    },
    {
      "children": [
        8
      ],
      "matrix": [
        100.0,
        0.0,
        0.0,
        0.0,
        0.0,
        -1.629206793918314e-05,
        -99.99999999999868,
        0.0,
        0.0,
        99.99999999999868,
        -1.629206793918314e-05,
        0.0,
        0.0,
        0.0,
        0.0,
        1.0
      ],
      "name": "floor"
    },
    {
      "mesh": 2,
      "name": "floor_floor_0"
    },
    {
      "children": [
        10
      ],
      "matrix": [
        100.0,
        0.0,
        0.0,
        0.0,
        0.0,
        -1.629206793918314e-05,
        -99.99999999999868,
        0.0,
        0.0,
        99.99999999999868,
        -1.629206793918314e-05,
        0.0,
        15.000000953674316,
        -0.7626391649246216,
        125.00001525878906,
        1.0
      ],
      "name": "stair"
    },
    {
      "mesh": 3,
      "name": "stair_stairs_0"
    },
    {
      "children": [
        12
      ],
      "matrix": [
        2.1855695031547384e-06,
        -5.551115123125783e-15,
        -49.99999999999996,
        0.0,
        -49.99999999999991,
        -2.1855695031547384e-06,
        -2.185569505930296e-06,
        0.0,
        -2.185569505930296e-06,
        49.99999999999996,
        -9.992007221626409e-14,
        0.0,
        -67.68732452392578,
        135.3948974609375,
        38.469791412353516,
        1.0
      ],
      "name": "snow"
    },
    {
      "mesh": 4,
      "name": "snow_snow_0"
    },
    {
      "children": [
        14
      ],
      "matrix": [
        1.9470718881642313e-05,
        -9.926167350636332e-22,
        -99.9999999999981,
        0.0,
        4.371139539216444e-06,
        99.9999999999999,
        8.51092291111779e-13,
        0.0,
        99.99999999999801,
        -4.371139539216527e-06,
        1.9470718881642313e-05,
        0.0,
        -105.13947296142578,
        224.7711944580078,
        -33.70518493652344,
        1.0
      ],
      "name": "logs"
    },
    {
      "mesh": 5,
      "name": "logs_log_0"
    },
    {
      "children": [
        16
      ],
      "matrix": [
        100.0,
        0.0,
        0.0,
        0.0,
        -0.0,
        -1.629206793918314e-05,
        -99.99999999999868,
        0.0,
        0.0,
        99.99999999999868,
        -1.629206793918314e-05,
        0.0,
        -104.94158172607422,
        237.43035888671875,
        -54.438446044921875,
        1.0
      ],
      "name": "bricks"
    },
    {
      "mesh": 6,
      "name": "bricks_bricks_0"
    },
    {
      "children": [
        18
      ],
      "matrix": [
        4.371139006309477e-06,
        -1.1102230246251565e-14,
        -99.99999999999991,
        0.0,
        -99.99999999999982,
        -4.371139006309477e-06,
        -4.371139011860592e-06,
        0.0,
        -4.371139011860592e-06,
        99.99999999999991,
        -1.9984014443252818e-13,
        0.0,
        -96.89476776123047,
        0.0,
        11.721002578735352,
        1.0
      ],
      "name": "doors_windows"
    },
    {
      "mesh": 7,
      "name": "doors_windows_window_0"
    }
  ],
  "samplers": [
    {
      "magFilter": 9729,
      "minFilter": 9987,
      "wrapS": 10497,
      "wrapT": 10497
    }
  ],
  "scene": 0,
  "scenes": [
    {
      "name": "Sketchfab_Scene",
      "nodes": [
        0
      ]
    }
  ],
  "textures": [
    {
      "sampler": 0,
      "source": 0
    },
    {
      "sampler": 0,
      "source": 1
    },
    {
      "sampler": 0,
      "source": 2
    },
    {
      "sampler": 0,
      "source": 3
    },
    {
      "sampler": 0,
      "source": 4
    },
    {
      "sampler": 0,
      "source": 5
    },
    {
      "sampler": 0,
      "source": 6
    },
    {
      "sampler": 0,
      "source": 7
    },
    {
      "sampler": 0,
      "source": 8
    },
    {
      "sampler": 0,
      "source": 9
    },
    {
      "sampler": 0,
      "source": 10
    },
    {
      "sampler": 0,
      "source": 11
    },
    {
      "sampler": 0,
      "source": 12
    },
    {
      "sampler": 0,
      "source": 13
    },
    {
      "sampler": 0,
      "source": 14
    },
    {
      "sampler": 0,
      "source": 15
    },
    {
      "sampler": 0,
      "source": 16
    }
  ]
}
